<?xml version="1.0" encoding="UTF-8"?>
<!DOCTYPE svg PUBLIC "-//W3C//DTD SVG 1.1//EN" "http://www.w3.org/Graphics/SVG/1.1/DTD/svg11.dtd">
<svg version="1.1" xmlns="http://www.w3.org/2000/svg" xmlns:xlink="http://www.w3.org/1999/xlink" x="0" y="0" width="43" height="36" viewBox="0, 0, 43, 36">
  <defs>
    <clipPath id="Clip_1">
      <path d="M-0,0 L42.269,0 L42.269,35.94 L-0,35.94 z"/>
    </clipPath>
  </defs>
  <g id="Layer_1">
    <path d="M39.855,28.799 L39.437,28.799 L39.437,27.952 L39.967,27.952 C40.242,27.952 40.554,27.997 40.554,28.355 C40.554,28.766 40.239,28.799 39.855,28.799 z M40.271,29.051 C40.694,28.999 40.916,28.766 40.916,28.375 C40.916,27.898 40.626,27.667 40.032,27.667 L39.079,27.667 L39.079,30.174 L39.437,30.174 L39.437,29.082 L39.881,29.082 L39.89,29.096 L40.579,30.174 L40.962,30.174 L40.224,29.058 L40.271,29.051" fill="#FFFFFE"/>
    <g clip-path="url(#Clip_1)">
      <path d="M39.896,30.984 C38.762,30.984 37.871,30.088 37.871,28.924 C37.871,27.761 38.762,26.863 39.896,26.863 C41.032,26.863 41.921,27.761 41.921,28.924 C41.921,30.088 41.032,30.984 39.896,30.984 z M39.896,26.553 C38.565,26.553 37.522,27.594 37.522,28.924 C37.522,30.255 38.565,31.295 39.896,31.295 C41.226,31.295 42.269,30.255 42.269,28.924 C42.269,27.594 41.226,26.553 39.896,26.553" fill="#FFFFFE"/>
      <path d="M30.677,30.676 L25.338,30.676 L25.338,22.321 C25.338,20.329 25.304,17.766 22.564,17.766 C19.785,17.766 19.361,19.937 19.361,22.179 L19.361,30.676 L14.028,30.676 L14.028,13.496 L19.146,13.496 L19.146,15.845 L19.22,15.845 C19.932,14.494 21.674,13.07 24.271,13.07 C29.678,13.07 30.677,16.627 30.677,21.254 L30.677,30.676 z M8.008,11.149 C6.293,11.149 4.91,9.762 4.91,8.052 C4.91,6.343 6.293,4.956 8.008,4.956 C9.716,4.956 11.102,6.343 11.102,8.052 C11.102,9.762 9.716,11.149 8.008,11.149 z M5.334,13.496 L10.679,13.496 L10.679,30.676 L5.334,30.676 z M33.336,0 L2.655,0 C1.19,0 -0,1.162 -0,2.596 L-0,33.402 C-0,34.836 1.19,36 2.655,36 L33.336,36 C34.804,36 35.999,34.836 35.999,33.402 L35.999,2.596 C35.999,1.162 34.804,0 33.336,0" fill="#FFFFFE"/>
    </g>
  </g>
</svg>
