<?xml version="1.0" encoding="UTF-8"?>
<!DOCTYPE svg PUBLIC "-//W3C//DTD SVG 1.1//EN" "http://www.w3.org/Graphics/SVG/1.1/DTD/svg11.dtd">
<svg version="1.1" xmlns="http://www.w3.org/2000/svg" xmlns:xlink="http://www.w3.org/1999/xlink" x="0" y="0" width="1086.5" height="1086.5" viewBox="0, 0, 265, 265">
  <g id="Layer_1">
    <g>
      <path d="M10.271,131.287 C10.271,62.92 65.693,7.5 134.058,7.5 C202.424,7.5 257.844,62.92 257.844,131.287 C257.844,199.65 202.424,255.073 134.058,255.073 C65.693,255.073 10.271,199.65 10.271,131.287" fill="#4CB8AA"/>
      <path d="M184.787,231.881 C184.787,239.84 178.336,246.292 170.375,246.292 L94.516,246.292 C86.558,246.292 80.105,239.84 80.105,231.881 L80.105,122.652 C80.105,114.694 86.557,108.241 94.516,108.241 L170.375,108.241 C178.336,108.241 184.787,114.694 184.787,122.652 L184.787,231.881 z" fill="#983B42"/>
      <path d="M17.502,204.66 L247.498,204.66 L247.498,257.5 L17.502,257.5 z" fill="#5C493E"/>
      <path d="M122.8,123.55 L142.092,123.55 L142.092,135.508 L122.8,135.508 z" fill="#FFFFFF"/>
      <path d="M132.03,128.114 L132.03,133.491" fill-opacity="0" stroke="#B3E0EC" stroke-width="2.198" stroke-miterlimit="10"/>
      <path d="M201.498,181.043 C193.227,164.497 175.613,127.937 172.277,125.135 C168.939,122.332 151.338,119.53 141.259,119.53 C141.259,119.53 143.154,131.94 132.028,131.94 C120.904,131.94 122.799,119.53 122.799,119.53 C112.719,119.53 95.118,122.333 91.782,125.135 C88.445,127.936 70.832,164.497 62.56,181.043 C54.288,197.589 64.828,198.79 64.828,198.79 L93.785,198.79 L93.785,184.913 C89.514,183.445 80.307,181.709 80.307,181.709 C83.108,174.906 99.388,143.816 99.388,143.816 L101.123,197.321 L132.029,197.321 L162.936,197.321 L164.672,143.816 C164.672,143.816 180.951,174.906 183.752,181.709 C183.752,181.709 174.545,183.445 170.275,184.913 L170.275,198.79 L199.23,198.79 C199.23,198.79 209.771,197.589 201.498,181.043" fill="#114867"/>
      <path d="M141.26,123.4 C141.26,123.4 139.953,128.112 132.03,128.112 C124.105,128.112 122.8,123.4 122.8,123.4 L122.8,101.025 L141.26,101.025 L141.26,123.4 z" fill="#FFF0DA"/>
      <path d="M141.26,107.4 C141.26,107.4 139.953,112.112 132.03,112.112 C124.105,112.112 122.8,107.4 122.8,107.4 L122.8,85.025 L141.26,85.025 L141.26,107.4 z" fill="#EFE0CA"/>
      <path d="M132.03,62.023 C114.357,55.129 106.462,62.023 106.462,62.023 C106.462,62.023 107.835,86.308 108.468,91.226 C109.971,102.882 125.136,110.654 132.03,110.654 C138.924,110.654 154.088,102.882 155.592,91.226 C156.227,86.309 157.598,62.023 157.598,62.023 C157.598,62.023 149.701,55.13 132.03,62.023" fill="#FFF0DA"/>
      <path d="M107.278,75.587 C107.278,75.587 102.787,71.139 101.198,73.806 C97.688,79.696 103.829,81.901 104.238,87.466 C104.531,91.448 107.212,91.417 108.279,89.442 C109.345,87.466 108.896,76.924 107.278,75.587" fill="#FFF0DA"/>
      <path d="M156.781,75.587 C156.781,75.587 161.271,71.139 162.861,73.806 C166.371,79.696 160.228,81.901 159.82,87.466 C159.529,91.448 156.845,91.417 155.781,89.442 C154.715,87.466 155.164,76.924 156.781,75.587" fill="#FFF0DA"/>
      <path d="M156.666,83.166 C156.666,83.166 155.617,75.799 159.176,73.728 C159.176,73.728 165.438,52.845 160.033,47.34 C154.628,41.835 146.924,38.333 140.418,37.633 C133.914,36.932 126.709,35.631 123.306,31.929 C123.306,31.929 125.007,36.632 127.309,36.932 C127.309,36.932 112.198,39.634 102.491,36.332 C102.491,36.332 105.193,43.637 111.298,44.937 C111.298,44.937 98.488,47.939 90.882,45.438 C90.882,45.438 96.924,57.794 106.463,62.023 C106.463,62.023 113.7,58.747 117.202,60.148 C117.202,60.148 117.902,62.149 114.8,63.451 C114.8,63.451 123.306,63.151 127.009,61.349 C127.009,61.349 127.309,62.75 127.109,64.051 C127.109,64.051 136.811,61.907 141.817,59.326 C141.817,59.326 146.024,62.45 144.622,63.751 C144.622,63.751 154.729,64.151 156.866,62.35 C156.865,62.35 155.699,80.463 156.666,83.166" fill="#FF7829"/>
      <path d="M107.394,83.166 C107.394,83.166 107.761,74.924 103.324,73.041 C103.324,73.041 100.991,60.349 102.191,57.547 L107.194,61.714 C107.194,61.714 108.562,79.664 107.881,83.166 L107.394,83.166 z" fill="#FF7829"/>
      <path d="M132.03,128.114 C132.03,128.114 124.307,128.137 121.905,133.491 C121.905,133.491 119.342,123.683 122.8,119.531 C122.8,119.531 123.74,127.439 132.03,128.114" fill="#FFFFFF"/>
      <path d="M132.03,128.114 C132.03,128.114 139.752,128.137 142.155,133.491 C142.155,133.491 144.717,123.683 141.26,119.531 C141.26,119.531 140.318,127.439 132.03,128.114" fill="#FFFFFF"/>
      <path d="M40.399,180.572 C40.399,181.015 40.041,181.374 39.598,181.374 L37.687,181.374 C37.245,181.374 36.887,181.016 36.887,180.572 L36.887,178.662 C36.887,178.22 37.245,177.86 37.687,177.86 L39.598,177.86 C40.04,177.86 40.399,178.219 40.399,178.662 L40.399,180.572 z" fill="#114867"/>
      <path d="M42.348,126.156 C42.348,126.156 6.318,127.136 25.733,180.956" fill-opacity="0" stroke="#1A638A" stroke-width="6.593" stroke-miterlimit="10"/>
      <path d="M47.728,181.809 L47.728,181.326 C47.728,180.651 47.37,180.107 46.927,180.107 L17.839,180.107 C17.397,180.107 17.039,180.651 17.039,181.326 L17.039,181.809 L47.728,181.809 z" fill="#114867"/>
      <path d="M45.05,126.156 C45.05,127.65 43.841,128.858 42.348,128.858 C40.855,128.858 39.647,127.65 39.647,126.156 C39.647,124.664 40.855,123.454 42.348,123.454 C43.841,123.454 45.05,124.664 45.05,126.156" fill="#114867"/>
      <path d="M59.044,131.961 C61.624,134.541 61.624,138.722 59.044,141.302 C56.463,143.88 52.283,143.88 49.704,141.302 C47.124,138.722 47.124,134.54 49.704,131.961 C52.283,129.381 56.465,129.381 59.044,131.961" fill="#E4551E"/>
      <path d="M43.264,125.521 C36.308,132.477 36.308,143.757 43.264,150.712 L68.456,125.521 C61.5,118.565 50.221,118.565 43.264,125.521" fill="#B3E0EC"/>
      <path d="M175.078,154.239 C174.277,152.905 171.609,152.638 171.609,152.638 L132.029,152.638 L92.45,152.638 C92.45,152.638 89.781,152.905 88.981,154.239 C88.179,155.573 89.78,198.005 89.78,198.005 L132.03,198.005 L174.278,198.005 C174.277,198.005 175.879,155.573 175.078,154.239" fill="#FFFFFF"/>
      <path d="M175.078,155.024 C174.277,153.689 171.609,153.421 171.609,153.421 L132.029,153.421 L92.45,153.421 C92.45,153.421 89.781,153.689 88.981,155.024 C88.179,156.357 89.78,198.79 89.78,198.79 L132.03,198.79 L174.278,198.79 C174.277,198.79 175.879,156.357 175.078,155.024" fill="#FFFFFF"/>
      <path d="M53.25,189.388 L14.133,189.388 L14.133,185.561 L53.25,185.561 C53.25,185.561 53.012,185.702 53.012,187.474 C53.013,189.247 53.25,189.388 53.25,189.388" fill="#F1F1F1"/>
      <path d="M57.404,197.694 L9.975,197.694 L9.975,191.828 L57.405,191.828 C57.405,191.828 57.116,192.043 57.116,194.76 C57.116,197.477 57.404,197.694 57.404,197.694" fill="#F1F1F1"/>
      <path d="M58.956,184.01 L11.72,184.01 L11.72,182.308 L58.955,182.308 C58.955,182.308 58.667,182.371 58.667,183.16 C58.667,183.949 58.956,184.01 58.956,184.01" fill="#F1F1F1"/>
      <path d="M59.392,182.662 L59.392,181.809 L12.104,181.809 L11.392,181.809 L11.392,182.662 L11.392,183.657 L11.392,184.509 L12.104,184.509 L59.392,184.509 L59.392,183.657 L12.104,183.657 L12.104,182.662 z" fill="#B3E0EC"/>
      <path d="M53.852,186.234 L53.852,184.509 L13.271,184.509 L13.271,184.511 L13.271,186.234 L13.271,189.063 L13.271,190.788 L14.995,190.788 L53.852,190.788 L53.852,189.063 L14.995,189.063 L14.995,186.234 z" fill="#3B4D98"/>
      <path d="M58.354,192.512 L58.354,190.788 L8.769,190.788 L8.769,192.512 L8.769,197.065 L8.769,198.79 L10.491,198.79 L58.354,198.79 L58.354,197.065 L10.491,197.065 L10.491,192.512 z" fill="#E4551E"/>
      <path d="M259.508,198.759 C261.275,198.759 262.709,200.192 262.709,201.961 C262.709,203.73 261.275,205.164 259.508,205.164 L5.493,205.164 C3.628,205.092 2.47,203.751 2.291,201.97 L2.291,201.952 C2.363,200.084 3.715,198.938 5.493,198.759 L259.508,198.759 z" fill="#8B503A"/>
      <path d="M81.971,117.128 L76.641,121.609 L75.517,120.272 L80.847,115.791 z" fill="#FFFFFF"/>
      <path d="M84.871,150.748 L84.126,152.331 L78.545,149.704 L79.29,148.121 z" fill="#FFFFFF"/>
      <path d="M71.382,173.466 L69.763,174.129 L64.91,162.282 L66.53,161.618 z" fill="#FFFFFF"/>
      <path d="M37.951,156.978 L33.181,162.097 L31.903,160.906 L36.672,155.787 z" fill="#FFFFFF"/>
      <path d="M92.397,119.134 L77.851,126.322 L77.076,124.753 L91.622,117.565 z" fill="#FFFFFF"/>
      <path d="M89.476,129.347 L80.361,131.504 L79.958,129.801 L89.073,127.644 z" fill="#FFFFFF"/>
      <path d="M73.832,164.478 L72.405,165.485 L68.426,159.85 L69.854,158.843 z" fill="#FFFFFF"/>
      <path d="M90.694,146.289 L90.251,147.981 L79.44,145.147 L79.884,143.455 z" fill="#FFFFFF"/>
      <path d="M82.579,161.481 L81.4,162.771 L73.553,155.596 L74.733,154.306 z" fill="#FFFFFF"/>
      <path d="M43.018,161.293 L39.268,168.929 L37.697,168.158 L41.448,160.521 z" fill="#FFFFFF"/>
      <path d="M51.693,163.612 L50.388,173.222 L48.656,172.987 L49.961,163.377 z" fill="#FFFFFF"/>
    </g>
  </g>
</svg>
